<svg width="24" height="24" viewBox="0 0 24 24" fill="none" xmlns="http://www.w3.org/2000/svg">
<path d="M9.31607 8.82782H8.97499H6.70108V10.9122H9.14553C9.58136 10.9122 9.96035 10.7985 9.96035 9.79423C9.96035 8.78993 9.31607 8.82782 9.31607 8.82782Z" fill="white"/>
<path d="M9.31607 12.4282H6.70108V15.0811H8.99394C9.03184 15.0811 9.08868 15.0811 9.16448 15.0811C9.54347 15.0811 10.2635 14.9295 10.2635 13.7926C10.2825 12.4472 9.31607 12.4282 9.31607 12.4282Z" fill="white"/>
<path d="M17.9569 0.111328H6.05681C2.75964 0.111328 0.0688477 2.80212 0.0688477 6.09929V18.0184C0.0688477 21.2966 2.75964 23.9874 6.05681 23.9874H17.9759C21.273 23.9874 23.9638 21.2966 23.9638 17.9994V6.09929C23.9449 2.80212 21.2541 0.111328 17.9569 0.111328ZM14.0913 7.69102H18.0706V8.63848H14.0913V7.69102ZM12.2343 13.9253C12.2343 16.8814 9.31607 16.9761 9.31607 16.9761H6.62528H6.54949H4.61666V7.12254H6.53054H6.60633H9.29712C10.7562 7.12254 11.9121 7.95631 11.9121 9.69964C11.9121 11.443 10.5099 11.5377 10.5099 11.5377C12.3669 11.5188 12.2343 13.9253 12.2343 13.9253ZM19.3781 13.7548H14.584C14.584 15.6497 16.2136 15.4981 16.2136 15.4981C17.7485 15.4981 17.6916 14.5127 17.6916 14.5127H19.3213C19.3213 17.1656 16.1567 17.0519 16.1567 17.0519C12.3669 17.0519 12.6132 13.3189 12.6132 13.3189C12.6132 13.3189 12.6132 9.567 16.1567 9.567C19.8897 9.54805 19.3781 13.7548 19.3781 13.7548Z" fill="white"/>
<path d="M16.1947 10.9312C14.7735 10.9312 14.565 12.4281 14.565 12.4281H17.5969C17.5969 12.4281 17.6158 10.9312 16.1947 10.9312Z" fill="white"/>
</svg>
