<svg width="22" height="22" viewBox="0 0 22 22" fill="none" xmlns="http://www.w3.org/2000/svg">
<path d="M22 18.9444C22 20.6323 20.6323 22 18.9444 22H3.05556C1.36828 22 0 20.6323 0 18.9444V3.05556C0 1.36767 1.36828 0 3.05556 0H18.9444C20.6323 0 22 1.36767 22 3.05556V18.9444Z" fill="white"/>
<path d="M16.5183 11.9777C16.1211 11.4277 15.5467 11.0488 14.8072 10.8472C14.8072 10.8472 15.4306 10.6211 15.9928 9.77774C16.3289 9.23996 16.5 8.59218 16.5 7.8344C16.5 6.52051 16.0233 5.51218 15.07 4.82163C14.1167 4.13107 13.0411 3.66663 11.2139 3.66663H5.5V18.3333H11.8739C13.6033 18.3211 14.905 17.9483 15.7911 17.2333C16.6711 16.5061 17.1111 15.4305 17.1111 13.9944C17.1111 13.2 16.9156 12.5277 16.5183 11.9777ZM9.16667 6.11107C9.16667 6.11107 11.715 6.11107 11.7639 6.11107C12.6928 6.11107 13.4444 6.86274 13.4444 7.79163C13.4444 8.72051 12.6928 9.47218 11.7639 9.47218C11.715 9.47218 9.16667 9.47218 9.16667 9.47218V6.11107ZM12.2222 15.8888H9.16667V12.2222H12.2222C13.2367 12.2222 14.0556 13.0411 14.0556 14.0555C14.0556 15.07 13.2367 15.8888 12.2222 15.8888Z" fill="#01087C"/>
</svg>
