<svg width="22" height="20" viewBox="0 0 22 20" fill="none" xmlns="http://www.w3.org/2000/svg">
<path d="M8.68009 14.12C8.59699 14.12 8.51328 14.0915 8.44498 14.0333L6.09467 12.032C6.0136 11.9629 5.96698 11.862 5.96698 11.7553C5.96698 11.6489 6.0138 11.548 6.09467 11.4789L8.44498 9.47759C8.5976 9.34747 8.82683 9.36592 8.95696 9.51854C9.08688 9.67136 9.06863 9.90059 8.91581 10.0305L6.8904 11.7553L8.91581 13.4802C9.06863 13.6103 9.08688 13.8395 8.95696 13.9922C8.885 14.0767 8.78285 14.12 8.68009 14.12Z" fill="white"/>
<path d="M13.3199 14.12C13.2171 14.12 13.115 14.0767 13.0432 13.9922C12.9131 13.8395 12.9316 13.6103 13.0842 13.4802L15.1096 11.7553L13.0842 10.0305C12.9316 9.90059 12.9131 9.67136 13.0432 9.51854C13.1732 9.36592 13.4026 9.34747 13.555 9.47759L15.9053 11.4789C15.9864 11.548 16.033 11.6489 16.033 11.7553C16.033 11.862 15.9864 11.9629 15.9053 12.032L13.555 14.0333C13.4867 14.0915 13.403 14.12 13.3199 14.12Z" fill="white"/>
<path d="M10.168 15.6212C10.1431 15.6212 10.1179 15.6185 10.0926 15.6133C9.89639 15.5719 9.77072 15.3792 9.81207 15.183L11.2769 8.22833C11.3182 8.03213 11.5108 7.90647 11.7072 7.94781C11.9034 7.98916 12.029 8.18171 11.9877 8.37811L10.5229 15.3328C10.4868 15.5038 10.336 15.6212 10.168 15.6212Z" fill="white"/>
<path d="M19.5613 19.4101H2.43868C1.09408 19.4101 0 18.3162 0 16.9714V2.43868C0 1.09408 1.09408 0 2.43868 0H19.5613C20.9059 0 22 1.09408 22 2.43868V16.9714C22 18.3162 20.9059 19.4101 19.5613 19.4101ZM2.43868 0.726415C1.49458 0.726415 0.726415 1.49458 0.726415 2.43868V16.9714C0.726415 17.9155 1.49458 18.6837 2.43868 18.6837H19.5613C20.5054 18.6837 21.2736 17.9155 21.2736 16.9714V2.43868C21.2736 1.49458 20.5054 0.726415 19.5613 0.726415H2.43868Z" fill="white"/>
<path d="M21.6368 5.81601H0.363208C0.162552 5.81601 0 5.65346 0 5.45281C0 5.25235 0.162552 5.0896 0.363208 5.0896H21.6368C21.8374 5.0896 22 5.25235 22 5.45281C22 5.65346 21.8374 5.81601 21.6368 5.81601Z" fill="white"/>
<path d="M6.20574 4.078C5.57216 4.078 5.05633 3.56218 5.05633 2.92859C5.05633 2.2948 5.57216 1.77917 6.20574 1.77917C6.83953 1.77917 7.35516 2.2948 7.35516 2.92859C7.35516 3.56218 6.83953 4.078 6.20574 4.078ZM6.20574 2.50559C5.97266 2.50559 5.78274 2.6953 5.78274 2.92859C5.78274 3.16188 5.97266 3.35159 6.20574 3.35159C6.43903 3.35159 6.62874 3.16188 6.62874 2.92859C6.62874 2.6953 6.43903 2.50559 6.20574 2.50559Z" fill="white"/>
<path d="M2.6742 4.06677C2.04041 4.06677 1.52478 3.55115 1.52478 2.91736C1.52478 2.28357 2.04041 1.76794 2.6742 1.76794C3.30799 1.76794 3.82361 2.28357 3.82361 2.91736C3.82361 3.55115 3.30799 4.06677 2.6742 4.06677ZM2.6742 2.49436C2.44111 2.49436 2.2512 2.68427 2.2512 2.91736C2.2512 3.15065 2.44111 3.34036 2.6742 3.34036C2.90749 3.34036 3.0972 3.15065 3.0972 2.91736C3.0972 2.68427 2.90749 2.49436 2.6742 2.49436Z" fill="white"/>
<path d="M9.73729 4.08891C9.1037 4.08891 8.58807 3.57328 8.58807 2.93949C8.58807 2.30591 9.1037 1.79028 9.73729 1.79028C10.3711 1.79028 10.8867 2.30591 10.8867 2.93949C10.8867 3.57328 10.3711 4.08891 9.73729 4.08891ZM9.73729 2.5165C9.5042 2.5165 9.31449 2.70621 9.31449 2.93949C9.31449 3.17278 9.5042 3.36249 9.73729 3.36249C9.97057 3.36249 10.1603 3.17278 10.1603 2.93949C10.1603 2.70621 9.97057 2.5165 9.73729 2.5165Z" fill="white"/>
</svg>
