<svg width="22" height="33" viewBox="0 0 22 33" fill="none" xmlns="http://www.w3.org/2000/svg">
<path d="M5.5 33C8.536 33 11 30.536 11 27.5V22H5.5C2.464 22 0 24.464 0 27.5C0 30.536 2.464 33 5.5 33Z" fill="white"/>
<path d="M0 16.5C0 13.464 2.464 11 5.5 11H11V22H5.5C2.464 22 0 19.536 0 16.5Z" fill="white"/>
<path d="M0.000324249 5.50049C0.000324249 2.46449 2.46432 0.000488281 5.50032 0.000488281H11.0003V11.0005H5.50032C2.46432 11.0005 0.000324249 8.53649 0.000324249 5.50049Z" fill="white"/>
<path d="M11 0H16.5C19.536 0 22 2.464 22 5.5C22 8.536 19.536 11 16.5 11H11V0Z" fill="white"/>
<path d="M22 16.5C22 19.536 19.536 22 16.5 22C13.464 22 11 19.536 11 16.5C11 13.464 13.464 11 16.5 11C19.536 11 22 13.464 22 16.5Z" fill="white"/>
</svg>
