<svg width="22" height="31" viewBox="0 0 22 31" fill="none" xmlns="http://www.w3.org/2000/svg">
<path d="M0.728267 19.8502L3.72366 0.583432C3.74534 0.440613 3.81153 0.308274 3.91279 0.205254C4.01406 0.102234 4.14524 0.0337848 4.28766 0.00964972C4.43009 -0.0144854 4.5765 0.00692426 4.70605 0.0708307C4.8356 0.134737 4.94169 0.237883 5.00921 0.365585L8.23005 6.4083L0.728267 19.8502ZM22 24.5251L19.1477 6.7946C19.1268 6.67032 19.072 6.5542 18.9896 6.45891C18.9071 6.36362 18.8 6.29283 18.68 6.25427C18.56 6.21571 18.4317 6.21086 18.3092 6.24026C18.1866 6.26966 18.0745 6.33217 17.985 6.42097L0 24.5251L9.9513 30.1333C10.2582 30.3058 10.6043 30.3963 10.9563 30.3963C11.3083 30.3963 11.6544 30.3058 11.9613 30.1333L22 24.5251ZM13.9131 9.05286L11.6079 4.64273C11.5498 4.53183 11.4624 4.43894 11.3552 4.37414C11.2481 4.30933 11.1252 4.27508 11 4.27508C10.8748 4.27508 10.7519 4.30933 10.6448 4.37414C10.5376 4.43894 10.4502 4.53183 10.3921 4.64273L0.272308 22.7772L13.9131 9.05286Z" fill="white"/>
</svg>
