<svg width="25" height="24" viewBox="0 0 25 24" fill="none" xmlns="http://www.w3.org/2000/svg">
<path d="M16.1952 23.3954C16.0777 23.4377 15.9595 23.489 15.8386 23.5101C15.3755 23.5928 15.0791 23.3537 15.0763 22.8804C15.0702 22.0013 15.0702 21.1236 15.0845 20.2445C15.0996 19.2336 15.0763 18.2356 14.3065 17.4016C14.7642 17.3197 15.1713 17.2623 15.5695 17.1708C18.2074 16.5649 19.5776 14.901 19.7525 12.1394C19.842 10.7337 19.5913 9.44412 18.6569 8.3369C18.5893 8.25903 18.5858 8.08212 18.6179 7.96874C18.8666 7.05345 18.7942 6.15934 18.5046 5.26455C18.4328 5.04119 18.314 4.9722 18.0934 4.98655C17.3188 5.02958 16.6091 5.30143 15.9834 5.71946C15.3803 6.12451 14.8188 6.21262 14.1023 6.04869C12.5245 5.69282 10.9364 5.79664 9.36195 6.16139C9.18367 6.20374 8.94392 6.14705 8.78067 6.05142C8.04161 5.61837 7.30256 5.19761 6.45011 5.02958C5.79097 4.90117 5.73359 4.93395 5.55873 5.57124C5.33879 6.3745 5.31693 7.17845 5.54166 7.9865C5.57376 8.10398 5.54029 8.2925 5.46174 8.37925C3.71518 10.328 4.34769 14.0103 5.52458 15.4208C6.43987 16.5164 7.65569 17.0096 9.0054 17.2657C9.24105 17.3094 9.47533 17.3429 9.71099 17.3839C9.5088 17.9098 9.32711 18.4064 9.12152 18.8948C9.08121 18.989 8.95348 19.0683 8.84898 19.1079C7.52523 19.6216 6.38727 19.2438 5.62977 18.0423C5.22472 17.4016 4.70492 16.9228 3.93034 16.7842C3.90575 16.7794 3.88048 16.7664 3.85794 16.7698C3.64961 16.8245 3.44333 16.8818 3.23568 16.9379C3.35248 17.1004 3.43513 17.319 3.59155 17.4167C4.24796 17.832 4.67487 18.4242 4.95697 19.1229C5.40026 20.2185 6.26091 20.7069 7.37906 20.8025C7.92481 20.8469 8.47603 20.8094 9.0737 20.8094C9.0737 21.4897 9.09829 22.2663 9.06346 23.0395C9.0457 23.4562 8.62699 23.6229 8.12563 23.4521C6.79573 22.9972 5.56283 22.3449 4.49796 21.4282C0.653075 18.1161 -0.82914 13.929 0.448844 9.02815C1.72273 4.14298 5.04303 1.14645 10.0074 0.205888C16.8769 -1.09327 23.3843 3.90938 24.0659 10.8826C24.6042 16.3798 21.3686 21.5238 16.1952 23.3954ZM9.71918 17.3579C9.71508 17.3675 9.71235 17.3743 9.70825 17.3839C9.72055 17.3859 9.73284 17.388 9.74582 17.39C9.75538 17.3907 9.76358 17.4078 9.71918 17.3579ZM6.61131 19.5307C6.71855 19.597 6.82101 19.681 6.93712 19.7172C6.97947 19.7308 7.05802 19.6345 7.19668 19.5321C7.00406 19.459 6.89068 19.3948 6.77114 19.3784C6.7247 19.3729 6.66459 19.4774 6.61131 19.5307ZM7.59012 19.6987C7.60583 19.7705 7.74859 19.8599 7.8326 19.8586C7.91388 19.8572 7.99312 19.7493 8.0744 19.6878C8.00063 19.6202 7.92686 19.5546 7.70009 19.3504C7.65091 19.4925 7.56963 19.6072 7.59012 19.6987ZM8.79092 19.4098C8.68983 19.4337 8.60445 19.5273 8.51224 19.5915C8.5662 19.6598 8.62016 19.7233 8.7069 19.8306C8.82644 19.7213 8.90772 19.6455 8.98969 19.5717C8.92138 19.5123 8.84146 19.3975 8.79092 19.4098ZM5.81419 19.0048C5.8702 19.1106 5.95695 19.2022 6.07443 19.3517C6.15298 19.2233 6.23837 19.125 6.22334 19.1052C6.14889 19.0075 6.0478 18.9276 5.94807 18.8545C5.94124 18.849 5.80258 18.9815 5.81419 19.0048Z" fill="white"/>
</svg>
