<svg width="24" height="24" viewBox="0 0 24 24" fill="none" xmlns="http://www.w3.org/2000/svg">
<path d="M16.4278 0.0883789H7.46718C3.34156 0.0883789 0 3.42994 0 7.55556V16.5162C0 20.6418 3.34156 23.9834 7.46718 23.9834H16.4278C20.5534 23.9834 23.895 20.6418 23.895 16.5162V7.55556C23.895 3.42994 20.5534 0.0883789 16.4278 0.0883789ZM21.6548 16.5162C21.6548 19.4004 19.312 21.7432 16.4278 21.7432H7.46718C4.58298 21.7432 2.24015 19.4004 2.24015 16.5162V7.55556C2.24015 4.67136 4.58298 2.32853 7.46718 2.32853H16.4278C19.312 2.32853 21.6548 4.67136 21.6548 7.55556V16.5162Z" fill="white"/>
<path d="M11.9475 6.06201C8.64793 6.06201 5.97375 8.7362 5.97375 12.0358C5.97375 15.3353 8.64793 18.0095 11.9475 18.0095C15.2471 18.0095 17.9212 15.3353 17.9212 12.0358C17.9212 8.7362 15.2471 6.06201 11.9475 6.06201ZM11.9475 15.7693C9.88935 15.7693 8.2139 14.0939 8.2139 12.0358C8.2139 9.97762 9.88935 8.30217 11.9475 8.30217C14.0056 8.30217 15.6811 9.97762 15.6811 12.0358C15.6811 14.0939 14.0056 15.7693 11.9475 15.7693Z" fill="white"/>
<path d="M18.3693 6.41203C18.81 6.41203 19.1673 6.05473 19.1673 5.61397C19.1673 5.17322 18.81 4.81592 18.3693 4.81592C17.9285 4.81592 17.5712 5.17322 17.5712 5.61397C17.5712 6.05473 17.9285 6.41203 18.3693 6.41203Z" fill="white"/>
</svg>
