<svg width="22" height="25" viewBox="0 0 22 25" fill="none" xmlns="http://www.w3.org/2000/svg">
<path d="M21.8594 0.176065C21.759 0.063638 21.6146 0 21.4639 0H0.536054C0.385403 0 0.241029 0.063638 0.140595 0.176065C0.0380691 0.288491 -0.0121478 0.439101 0.00249888 0.591831L1.88772 22.0017C1.90656 22.2265 2.06139 22.4132 2.27481 22.4769L10.8493 24.9587C10.8975 24.9736 10.9477 24.9799 10.9958 24.9799C11.046 24.9799 11.0962 24.9736 11.1444 24.9587L19.7273 22.4769C19.9407 22.4132 20.0934 22.2265 20.1144 22.0017L21.9975 0.591831C22.0121 0.439101 21.9619 0.288491 21.8594 0.176065ZM4.03659 14.6643L7.78612 15.7185V4.88738H9.92871V19.0065L4.03659 17.3498V14.6643ZM17.9927 10.8608L17.4278 17.5131L12.0713 19.0065V16.5076L15.6869 15.5L15.8208 13.4636L12.0713 14.1191V4.88738H18.4991L18.3149 7.05955H14.2139V11.4039L17.9927 10.8608Z" fill="white"/>
</svg>
