<svg width="27" height="24" viewBox="0 0 27 24" fill="none" xmlns="http://www.w3.org/2000/svg">
<path d="M13.4479 9.58587C14.7747 9.58587 15.8504 10.6615 15.8504 11.9883C15.8504 13.3151 14.7747 14.3907 13.4479 14.3907C12.1211 14.3907 11.0455 13.3151 11.0455 11.9883C11.0455 10.6615 12.1211 9.58587 13.4479 9.58587Z" fill="white"/>
<path d="M13.4479 6.48469C10.074 6.48469 7.12596 6.88191 4.91974 7.63806C3.4888 8.1262 2.27323 8.77706 1.40701 9.51885C0.488145 10.3037 0 11.1604 0 11.9883C0 13.5772 1.74201 15.1325 4.66609 16.1471C7.05896 16.9798 10.1793 17.444 13.4431 17.444C16.6496 17.444 19.7268 16.9942 22.1053 16.171C23.498 15.6925 24.6705 15.0703 25.5032 14.3812C26.4077 13.625 26.8863 12.7971 26.8863 11.9883C26.8863 10.3372 24.9385 8.66699 21.799 7.62849C19.5784 6.89148 16.6113 6.48469 13.4479 6.48469ZM13.4479 16.2955C10.3515 16.2955 7.28868 15.8456 5.04895 15.0655C2.35937 14.1275 1.15336 12.8449 1.15336 11.9883C1.15336 11.0981 2.4503 9.69592 5.29303 8.72442C7.37961 8.01135 10.2032 7.63327 13.4479 7.63327C16.4916 7.63327 19.3296 8.01613 21.4401 8.71963C24.3929 9.70071 25.7425 11.1029 25.7425 11.9883C25.7425 12.4429 25.3979 12.9789 24.771 13.5006C24.0483 14.1036 22.9955 14.6539 21.7368 15.0894C19.4732 15.8647 16.5299 16.2955 13.4479 16.2955Z" fill="white"/>
<path d="M7.99695 0.0143986C7.50881 0.0143986 7.07809 0.119684 6.71438 0.330256C5.34087 1.12469 4.8623 3.41227 5.44137 6.45121C5.91516 8.94458 7.07331 11.8735 8.70524 14.7018C10.3085 17.4775 12.2323 19.9183 14.1323 21.5694C15.2426 22.5361 16.3672 23.2444 17.3818 23.6176C18.4873 24.0244 19.4444 24.0244 20.1432 23.6224C21.5741 22.7993 22.0479 20.2724 21.3779 17.0373C20.9041 14.7401 19.7747 11.9692 18.1954 9.22694C16.5108 6.30764 14.6922 3.95306 12.9358 2.41684C11.7968 1.4214 10.6243 0.693974 9.55232 0.315899C8.99239 0.114899 8.46596 0.0143986 7.99695 0.0143986ZM9.19817 14.4147L9.69589 14.1275C8.1501 11.4475 7.00631 8.57129 6.56602 6.23586C6.0348 3.4362 6.54688 1.75162 7.28388 1.32569C7.46574 1.2204 7.70502 1.16298 7.99695 1.16298C8.94932 1.16298 10.4473 1.76598 12.1797 3.27827C13.8403 4.72835 15.5776 6.98722 17.1999 9.79644C18.7218 12.4334 19.8034 15.0847 20.2532 17.2622C20.8802 20.3107 20.3394 22.1771 19.5689 22.6222C19.1764 22.8471 18.5399 22.8184 17.7742 22.5361C16.8889 22.2106 15.8886 21.5741 14.8836 20.6983C13.0794 19.1286 11.2369 16.7932 9.69589 14.1227L9.19817 14.4147Z" fill="white"/>
<path d="M18.8989 4.95911e-05C17.5972 4.95911e-05 15.9461 0.78491 14.2232 2.26849C12.2993 3.92435 10.342 6.38901 8.70526 9.21738C7.09725 11.9931 5.94867 14.8789 5.46531 17.3531C5.18296 18.7984 5.13031 20.1241 5.31217 21.1913C5.51317 22.3542 5.98696 23.1822 6.69046 23.5889C8.11661 24.4169 10.543 23.565 13.0124 21.3684C14.764 19.813 16.6017 17.4488 18.1858 14.7114C19.8752 11.7921 21.0094 9.04031 21.4592 6.75272C21.7512 5.26915 21.799 3.89085 21.5932 2.77099C21.3731 1.57934 20.8754 0.732267 20.1575 0.315908C19.7986 0.105335 19.3727 4.95911e-05 18.8989 4.95911e-05ZM9.70069 9.79167C11.2513 7.11165 13.1751 4.68529 14.9746 3.13949C17.1329 1.28263 18.8462 0.880625 19.588 1.31134C20.3585 1.75641 20.9232 3.57978 20.3394 6.52779C19.9087 8.69095 18.8223 11.3231 17.1952 14.1323C15.6685 16.7693 13.9121 19.0329 12.2515 20.5069C9.92562 22.5744 8.04004 23.0386 7.26954 22.5935C6.87711 22.3686 6.58518 21.7991 6.44639 20.9951C6.28846 20.0666 6.33632 18.8798 6.59475 17.5733C7.05418 15.2235 8.1549 12.4621 9.70069 9.79167Z" fill="white"/>
</svg>
