<svg width="22" height="20" viewBox="0 0 22 20" fill="none" xmlns="http://www.w3.org/2000/svg">
<path d="M0 0V19.4694H22V0H0ZM14.5836 1.28906L12.1582 4.21549H1.28906V1.28906H14.5836ZM20.7109 18.1803H1.28906V5.50455H12.764L16.2579 1.28906H20.7109V18.1803Z" fill="white"/>
<path d="M2.76431 2.1095H4.05338V3.40574H2.76431V2.1095Z" fill="white"/>
<path d="M5.14194 2.1095H6.43101V3.40574H5.14194V2.1095Z" fill="white"/>
<path d="M7.51954 2.1095H8.8086V3.40574H7.51954V2.1095Z" fill="white"/>
<path d="M8.79132 12.7209C8.79132 13.3251 8.2998 13.8167 7.69562 13.8167C7.09143 13.8167 6.59991 13.3251 6.59991 12.7209V8.70337H5.31085V12.7209C5.31085 14.0359 6.38065 15.1057 7.69562 15.1057C9.01059 15.1057 10.0804 14.0359 10.0804 12.7209V8.70337H8.79132V12.7209Z" fill="white"/>
<path d="M14.9482 8.68201L13.8961 10.5769L12.844 8.68201H11.3695L13.1589 11.9047L11.3695 15.1273H12.844L13.8961 13.2324L14.9482 15.1273H16.4227L14.6333 11.9047L16.4227 8.68201H14.9482Z" fill="white"/>
</svg>
