<svg width="441" height="431" viewBox="0 0 441 431" fill="none" xmlns="http://www.w3.org/2000/svg">
<g id="landing_dark_svg">
<g id="rest">
<path id="Vector" d="M427.1 167.7C378.4 84.2 246.1 114 219.1 73.4C205.3 52.6 189.8 28.5 167.4 16C146 4 121.2 -0.300002 99.6 1.3C22.4 7 -10.4 76 4.50001 151.9C24.3 253.1 114 356.5 220.5 357.2C276.2 357.6 329.4 337.7 371.2 309.5C371.5 309.3 371.8 309.1 372.1 308.9C413.9 280.5 464.3 231.4 427.1 167.7Z" fill="#F9F9F9"/>
<g id="Group">
<path id="Vector_2" d="M48.7 173.8H43.3C31.2 173.8 21.4 183.6 21.4 195.7V316C21.4 328.1 31.2 337.9 43.3 337.9H117.7C129.8 337.9 139.6 328.1 139.6 316" stroke="#263238" stroke-width="1.1031" stroke-miterlimit="10" stroke-linecap="round" stroke-linejoin="round" stroke-dasharray="4.41 4.41"/>
<path id="Vector_3" d="M133.5 60.2V36.5C133.5 29.1 139.5 23.1 146.9 23.1H243.6C251 23.1 257 29.1 257 36.5" stroke="#263238" stroke-width="1.1031" stroke-miterlimit="10" stroke-linecap="round" stroke-linejoin="round" stroke-dasharray="4.41 4.41"/>
</g>
<g id="Group_2">
<path id="Vector_4" d="M220.5 430.8C326.263 430.8 412 418.801 412 404C412 389.199 326.263 377.2 220.5 377.2C114.737 377.2 29 389.199 29 404C29 418.801 114.737 430.8 220.5 430.8Z" fill="#262A34"/>
</g>
<g id="Group_3">
<path id="Vector_5" d="M401.1 92.1V272.2C401.1 284.5 391.2 294.4 378.9 294.4H62.2C49.9 294.4 40 284.5 40 272.2V92.1C40 91.6 40 91.1 40.1 90.5C40.9 79 50.5 69.9 62.2 69.9H378.9C390.6 69.9 400.2 79 401 90.5C401.1 91.1 401.1 91.6 401.1 92.1Z" fill="white" stroke="#263238" stroke-width="1.1031" stroke-miterlimit="10" stroke-linecap="round" stroke-linejoin="round"/>
<path id="Vector_6" d="M370.6 286H71.6C60.1 286 50.8 276.7 50.8 265.2V98.9H391.4V265.2C391.4 276.7 382.1 286 370.6 286Z" fill="#263238"/>
<path id="Vector_7" opacity="0.2" d="M391.4 98.9V265.2C391.4 276.7 382.2 286 370.8 286H71.4C60 286 50.8 276.7 50.8 265.2V98.9H391.4Z" fill="white"/>
<path id="Vector_8" d="M401 90.6H40.1C40.9 79 50.5 69.9 62.2 69.9H378.9C390.6 69.9 400.2 79 401 90.6Z" fill="#262A34" stroke="#263238" stroke-width="1.1031" stroke-miterlimit="10"/>
<path id="Vector_9" d="M84.4 80.2C84.4 82.4 82.6 84.1 80.5 84.1C78.3 84.1 76.6 82.3 76.6 80.2C76.6 78 78.4 76.3 80.5 76.3C82.7 76.3 84.4 78.1 84.4 80.2Z" fill="white"/>
<path id="Vector_10" d="M101 80.2C101 82.4 99.2 84.1 97.1 84.1C94.9 84.1 93.2 82.3 93.2 80.2C93.2 78 95 76.3 97.1 76.3C99.3 76.3 101 78.1 101 80.2Z" fill="white"/>
<path id="Vector_11" d="M113.7 84.1C115.854 84.1 117.6 82.3539 117.6 80.2C117.6 78.0461 115.854 76.3 113.7 76.3C111.546 76.3 109.8 78.0461 109.8 80.2C109.8 82.3539 111.546 84.1 113.7 84.1Z" fill="white"/>
<path id="Vector_12" d="M391.4 98.9V265.2C391.4 276.7 382.1 286 370.6 286H71.6C61.5 286 53.1 278.8 51.2 269.2C50.9 267.9 50.8 266.6 50.8 265.2V98.9H391.4Z" stroke="#263238" stroke-width="1.1031" stroke-miterlimit="10"/>
<path id="Vector_13" d="M391.1 124.6C389.6 123.8 388.1 123.1 386.5 122.7L384.6 114.3H376.7L374.8 122.7C373.2 123.1 371.6 123.8 370.2 124.6L363 120L357.4 125.6L361.9 132.8C361.1 134.3 360.4 135.8 360 137.4L351.6 139.3V147.2L360 149.1C360.4 150.7 361.1 152.3 361.9 153.8L357.3 161L362.9 166.6L370.1 162C371.6 162.8 373.1 163.5 374.7 163.9L376.6 172.2H384.5L386.4 163.9C388 163.4 389.6 162.8 391 162L391.4 162.2V124.4L391.1 124.6ZM380.7 153.6C375 153.6 370.4 149 370.4 143.3C370.4 137.6 375 133 380.7 133C386.4 133 391 137.6 391 143.3C390.9 149 386.3 153.6 380.7 153.6Z" fill="#263238"/>
<path id="Vector_14" d="M248 132.7V116L230.4 112.1C229.4 108.7 228.1 105.4 226.4 102.3L228.5 98.9H145.4L147.5 102.2C145.8 105.3 144.4 108.6 143.5 112L125.9 115.9V132.6L143.5 136.5C144.4 139.9 145.8 143.2 147.5 146.3L137.8 161.5L149.6 173.3L164.8 163.6C167.9 165.3 171.2 166.7 174.6 167.6L178.5 185.2H195.2L199.1 167.6C202.5 166.6 205.8 165.3 208.8 163.6L224 173.3L235.8 161.5L226.2 146.3C227.9 143.2 229.3 139.9 230.2 136.5L248 132.7ZM187 145.9C175.1 145.9 165.4 136.2 165.4 124.3C165.4 112.4 175.1 102.7 187 102.7C198.9 102.7 208.6 112.4 208.6 124.3C208.6 136.2 198.9 145.9 187 145.9Z" fill="#263238"/>
<path id="Vector_15" d="M136.9 247.6L137.6 234.3L123.8 230.4C123.2 227.7 122.2 225 121 222.5L129.3 210.8L120.4 200.9L107.9 207.9C105.5 206.4 103 205.2 100.3 204.3L98 190.3L84.7 189.6L80.9 203.4C78.2 204 75.5 205 73 206.2L61.3 197.9L51.4 206.8L58.5 219.3C57 221.7 55.8 224.2 54.9 226.9L50.9 227.6V245.6L53.8 246.4C54.4 249.1 55.4 251.8 56.6 254.3L50.9 262.3L51.3 269.2L57.2 275.8L69.7 268.8C72.1 270.3 74.6 271.6 77.3 272.5L79.6 286.1L79.7 286.7L93 287.4L93.4 286.1L96.9 273.6C99.7 273 102.3 272 104.8 270.8L116.4 279.1L126.3 270.2L119.3 257.7C120.8 255.3 122 252.8 122.9 250.1L136.9 247.6ZM101.6 226.9C95.2 219.8 84.4 219.3 77.3 225.6C70.2 232 69.7 242.8 76 249.9C82.4 257 93.2 257.5 100.3 251.2C107.4 244.9 108 234 101.6 226.9Z" fill="#263238"/>
<path id="Vector_16" d="M243.1 227.8C243.6 225.7 243.9 223.6 243.9 221.5L253.4 216.5L250.8 206.8L240 207.3C238.9 205.5 237.6 203.8 236.1 202.3L239.3 192L230.6 187L223.3 194.9C221.3 194.4 219.1 194.1 217 194.1L212 184.5L202.3 187.1L202.8 197.9C201 199 199.3 200.3 197.8 201.8L187.5 198.6L182.5 207.3L190.5 214.6C190 216.7 189.7 218.8 189.7 220.9L180.1 225.9L182.7 235.6L193.5 235.1C194.6 236.9 195.9 238.6 197.4 240.1L194.2 250.4L202.9 255.4L210.1 247.5C212.2 248 214.3 248.3 216.4 248.3L221.4 257.9L231.1 255.3L230.7 246.1L230.6 244.5C232.4 243.4 234.1 242.1 235.7 240.6L246 243.8L250.3 236.4L251 235.1L243.1 227.8ZM220.3 233.7C213.4 235.6 206.3 231.5 204.4 224.6C202.5 217.7 206.6 210.6 213.5 208.7C220.4 206.8 227.5 210.9 229.4 217.8C231.2 224.7 227.2 231.8 220.3 233.7Z" fill="#263238"/>
<path id="Vector_17" d="M353.9 244.8L356.1 231.5L342.6 226.1C342.3 223.3 341.6 220.5 340.7 217.8L350.4 207L342.6 196L329.2 201.7C327 199.9 324.6 198.4 322 197.2L321.2 182.7L307.9 180.5L302.5 193.9C299.7 194.2 296.9 194.9 294.2 195.8L283.4 186.1L272.4 193.9L278.1 207.2C276.5 209.2 275.2 211.3 274.1 213.5C273.9 213.8 273.8 214.1 273.6 214.4L259.1 215.2L256.9 228.5L259.1 229.4L270.4 233.9C270.7 236.7 271.3 239.5 272.3 242.2L262.6 253L270.4 264L283.8 258.3C286 260.1 288.4 261.6 291 262.8L291.8 277.2L305.1 279.4L310.5 266.1C313.3 265.8 316.1 265.1 318.8 264.2L329.6 273.9L340.6 266L334.9 252.6C336.7 250.4 338.2 247.9 339.5 245.4L353.9 244.8ZM316.6 244.2C308.8 249.8 297.9 248 292.3 240.2C286.7 232.4 288.5 221.5 296.3 215.9C304.1 210.3 315 212.1 320.6 219.9C326.2 227.8 324.4 238.6 316.6 244.2Z" fill="#263238"/>
</g>
<g id="Group_4">
<g id="Group_5">
<path id="Vector_18" d="M173.6 317.4H69C61.8 317.4 55.9 311.5 55.9 304.3V159.5C55.9 152.3 61.8 146.4 69 146.4H173.6C180.8 146.4 186.7 152.3 186.7 159.5V304.3C186.7 311.5 180.9 317.4 173.6 317.4Z" fill="#262A34" stroke="#263238" stroke-width="1.1031" stroke-miterlimit="10"/>
<path id="Vector_19" opacity="0.2" d="M173.6 317.4H69C61.8 317.4 55.9 311.5 55.9 304.3V159.5C55.9 152.3 61.8 146.4 69 146.4H173.6C180.8 146.4 186.7 152.3 186.7 159.5V304.3C186.7 311.5 180.9 317.4 173.6 317.4Z" fill="black"/>
<g id="Group_6">
<path id="Vector_20" d="M198.9 172.4V317.2C198.9 324.4 193 330.3 185.8 330.3H81.2C74 330.3 68.1 324.4 68.1 317.2V172.4C68.1 165.2 74 159.3 81.2 159.3H185.8C193 159.3 198.9 165.2 198.9 172.4Z" fill="white" stroke="#263238" stroke-width="1.1031" stroke-miterlimit="10" stroke-linecap="round" stroke-linejoin="round"/>
<path id="Vector_21" d="M198.9 172.4V180.2H68.1V172.4C68.1 165.2 74 159.3 81.2 159.3H185.8C193 159.3 198.9 165.2 198.9 172.4Z" fill="#262A34" stroke="#263238" stroke-width="1.1031" stroke-miterlimit="10"/>
<path id="Vector_22" d="M112.6 189.1H80.4V194.5H112.6V189.1Z" fill="black"/>
<path id="Vector_23" d="M112.6 237.5H80.4V242.9H112.6V237.5Z" fill="black"/>
<path id="Vector_24" d="M112.6 281.4H80.4V286.8H112.6V281.4Z" fill="black"/>
<g id="Group_7">
<path id="Vector_25" d="M171.8 202.5H80.4V206.5H171.8V202.5Z" fill="#263238"/>
<path id="Vector_26" d="M155.3 210.1H80.4V214H155.3V210.1Z" fill="#263238"/>
<path id="Vector_27" d="M165.1 217.5H80.4V221.4H165.1V217.5Z" fill="#263238"/>
<path id="Vector_28" d="M165.1 225H80.4V228.9H165.1V225Z" fill="#263238"/>
</g>
<g id="Group_8">
<path id="Vector_29" d="M171.8 246.4H80.4V250.4H171.8V246.4Z" fill="#263238"/>
<path id="Vector_30" d="M155.3 254H80.4V257.9H155.3V254Z" fill="#263238"/>
<path id="Vector_31" d="M165.1 261.4H80.4V265.3H165.1V261.4Z" fill="#263238"/>
</g>
<g id="Group_9">
<path id="Vector_32" d="M171.8 294.6H80.4V298.6H171.8V294.6Z" fill="#263238"/>
<path id="Vector_33" d="M155.3 302.1H80.4V306H155.3V302.1Z" fill="#263238"/>
<path id="Vector_34" d="M165.1 309.6H80.4V313.5H165.1V309.6Z" fill="#263238"/>
</g>
</g>
</g>
<g id="Group_10">
<path id="Vector_35" d="M346.3 58.9V117.4C346.3 126 339.3 133 330.7 133H195.9C187.3 133 180.3 126 180.3 117.4V58.9C180.3 50.3 187.3 43.3 195.9 43.3H330.7C339.3 43.3 346.3 50.3 346.3 58.9Z" fill="white" stroke="#222221" stroke-width="1.1031" stroke-miterlimit="10"/>
<path id="Vector_36" d="M346.3 58.9V60.2H180.3V58.9C180.3 50.3 187.3 43.3 195.9 43.3H330.7C339.3 43.3 346.3 50.3 346.3 58.9Z" fill="#262A34" stroke="#263238" stroke-width="1.1031" stroke-miterlimit="10"/>
<path id="Vector_37" d="M204.6 54.5C203.7 55.4 202.1 55.4 201.2 54.5C200.3 53.6 200.3 52 201.2 51.1C202.1 50.2 203.7 50.2 204.6 51.1C205.6 52.1 205.6 53.6 204.6 54.5Z" fill="white"/>
<path id="Vector_38" d="M215.8 54.5C214.9 55.4 213.3 55.4 212.4 54.5C211.5 53.6 211.5 52 212.4 51.1C213.3 50.2 214.9 50.2 215.8 51.1C216.7 52.1 216.7 53.6 215.8 54.5Z" fill="white"/>
<path id="Vector_39" d="M226.9 54.5C226 55.4 224.4 55.4 223.5 54.5C222.6 53.6 222.6 52 223.5 51.1C224.4 50.2 226 50.2 226.9 51.1C227.8 52.1 227.8 53.6 226.9 54.5Z" fill="white"/>
<path id="Vector_40" d="M245.1 71H190.8V117.9H245.1V71Z" stroke="#263238" stroke-width="1.1031" stroke-miterlimit="10" stroke-linecap="round" stroke-linejoin="round" stroke-dasharray="4.41 4.41"/>
<g id="Group_11">
<path id="Vector_41" d="M316 71H253.5V74.3H316V71Z" fill="#263238"/>
<path id="Vector_42" d="M301.4 77.8H253.5V81.1H301.4V77.8Z" fill="#263238"/>
<path id="Vector_43" d="M324.9 84.6H253.5V87.9H324.9V84.6Z" fill="#263238"/>
<path id="Vector_44" d="M314.3 91.3H253.5V94.6H314.3V91.3Z" fill="#263238"/>
</g>
</g>
</g>
<path id="Vector_45" d="M267.4 399.1C267.4 399.1 238.4 407.4 234.4 408.9C230.7 410.2 220.7 413.7 213.2 412.6C212.5 412.5 211.7 412.3 211.1 412.1C203.5 409.8 200.1 407.7 199.1 403C198.1 398.2 201.9 394.7 205.5 392.5C209.1 390.2 228.9 387.9 228.9 387.9L233.7 389.3L267.4 399.1Z" fill="#262A34"/>
<path id="Vector_46" d="M213.2 412.5C212.5 412.4 211.7 412.2 211.1 412C203.5 409.7 200.1 407.6 199.1 402.9C198.1 398.1 201.9 394.6 205.5 392.4C209.1 390.1 228.9 387.8 228.9 387.8L233.7 389.2C229.4 391.2 213.3 392.3 209.8 394.3C206.3 396.3 204.6 400.1 206.7 405.3C207.7 408 210.7 410.7 213.2 412.5Z" fill="white"/>
<path id="Vector_47" d="M263 400.3C263 400.3 241.2 405.9 232.6 409.6C224 413.2 207.5 414.8 201.6 407.3C195.7 399.9 200.9 393.4 206.8 392C212.7 390.6 224.5 388.3 231 389.2" stroke="#263238" stroke-width="1.1031" stroke-miterlimit="10" stroke-linecap="round" stroke-linejoin="round"/>
<path id="Vector_48" d="M213.6 412.1C213.6 412.1 202.5 406 206.2 397.5C208.9 391.2 223.7 392.6 231 389.1" stroke="#263238" stroke-width="1.1031" stroke-miterlimit="10" stroke-linecap="round" stroke-linejoin="round"/>
<path id="Vector_49" d="M355.7 413.9C355.4 416.9 354.4 419.7 351.4 421.5C349.4 422.7 346.6 423.4 342.5 423.3C332.3 423.2 313.2 415.9 313.2 415.9L295.3 406L304.6 391.3L307.1 387.3L313.7 388.8C313.7 388.8 319.1 391.9 324.6 394.3C330.1 396.8 343.4 397.3 348.1 401.1C352.8 404.8 356.2 408.9 355.7 413.9Z" fill="black"/>
<path id="Vector_50" d="M355.7 413.9C355.4 416.9 354.4 419.7 351.4 421.5C352 419.2 352.4 416 350.9 412.6C348.9 408.1 342.4 404.2 333.8 403.5C325.3 402.8 318.7 398.8 315.3 397C312.6 395.6 307 392.6 304.6 391.3L307.1 387.3L313.7 388.8C313.7 388.8 319.1 391.9 324.6 394.3C330.1 396.8 343.4 397.3 348.1 401.1C352.8 404.8 356.2 408.9 355.7 413.9Z" fill="white"/>
<path id="Vector_51" d="M299.2 408.8C311.9 416.1 326.5 421.4 341.1 423.1C344.4 423.5 348.1 423.5 350.3 421.1C351.5 419.7 352 417.8 351.8 416C351.4 411.4 347.5 407.8 343.3 405.9C339.1 404.1 334.4 403.6 329.9 402.6C325.4 401.6 321.1 400 317 397.9C313.8 396.2 310.6 394.2 307.1 393.4C303.5 392.6 299.3 393.6 297.4 396.7" stroke="#263238" stroke-width="1.1031" stroke-miterlimit="10" stroke-linecap="round" stroke-linejoin="round"/>
<path id="Vector_52" d="M349.2 422.3C352.5 420.6 355.2 417.5 355.7 413.8C356.3 409.5 353.9 405.1 350.4 402.4C346.9 399.7 342.6 398.5 338.3 397.6C334 396.7 329.6 396.1 325.5 394.5C319.2 392 313 387.2 306.5 388.9" stroke="#263238" stroke-width="1.1031" stroke-miterlimit="10" stroke-linecap="round" stroke-linejoin="round"/>
<path id="Vector_53" d="M319.4 253.9L289.1 242.4L288.7 242.3C288.7 242.3 288.8 241.5 288.9 240.3C289.1 237.9 289.2 233.9 288.1 232.6C286.4 230.6 281.6 232.3 277 230.1C272.3 228 263.7 231.8 263.7 231.8C263.7 231.8 257.5 230.7 254.7 235.2C253.3 238.8 253.8 244.2 253.8 244.2C253.8 244.2 253.6 244.3 253.2 244.4C249.6 245.7 230 253.1 225.8 256.1C221.2 259.4 216.1 292.7 214.5 302.5C212.9 312.3 210 321.1 211.4 324.5C212.9 327.9 234 344.1 246.1 348.3C258.2 352.5 301.3 351.3 301.3 351.3C301.3 351.3 302 351.1 303.3 350.7C310.6 348.4 336.4 338.7 350.1 316C350.1 316 336.9 272.5 319.4 253.9ZM237.6 310C235.4 311.6 236.6 317.7 236.6 317.7L232.8 314.4L242.3 291L246.4 309C246.4 308.9 239.8 308.4 237.6 310ZM313.8 324.9C312.8 325.4 316.8 314.2 314.9 311.6C313 309 307.2 309.3 307.2 309.3L307.7 306.2C307.8 305.9 311.1 288.6 311.1 288.6L312.2 287.2C312.2 287.2 324 307.4 326.1 314.5C326.1 314.6 313.2 324.9 313.8 324.9Z" fill="#262A34"/>
<path id="Vector_54" opacity="0.5" d="M289.2 242.3C289 242.9 288.7 243.5 288.4 244.1C285.8 249 274.6 258.2 274.6 258.2L271.2 247.8L269.3 258.2C265.5 256.6 254.1 246.7 254.1 246.7C254.1 246.7 253.7 245.8 253.2 244.3C253.6 244.2 253.8 244.1 253.8 244.1C253.8 244.1 253.3 238.7 254.7 235.1C257.4 230.6 263.7 231.7 263.7 231.7C263.7 231.7 272.3 227.9 277 230C281.7 232.1 286.5 230.5 288.1 232.5C289.8 234.5 288.8 242.2 288.8 242.2L289.2 242.3Z" fill="white"/>
<path id="Vector_55" opacity="0.2" d="M319.4 253.9L289.1 242.4L288.7 242.3C288.7 242.3 288.8 241.5 288.9 240.3L288.3 244.2L283.8 250.3C283.8 250.3 291.4 253 297.8 256.5C302.3 258.9 304.8 263.7 304.2 268.7L298.6 316.4L296.3 343.5L303.2 350.7C310.5 348.4 336.3 338.7 350 316C350.1 316 336.9 272.5 319.4 253.9ZM313.8 324.9C312.8 325.4 316.8 314.2 314.9 311.6C313 309 307.2 309.3 307.2 309.3L307.7 306.2C307.8 305.9 311.1 288.6 311.1 288.6L312.2 287.2C312.2 287.2 324 307.4 326.1 314.5C326.1 314.6 313.2 324.9 313.8 324.9Z" fill="black"/>
<path id="Vector_56" opacity="0.2" d="M248.4 311.6L243.7 295.9C243.7 295.9 235.3 267.1 229.5 260L231 280.3C231 280.3 226 304.5 221.4 311.7C216.8 318.9 215.8 320.7 221.4 320.7C227 320.7 240.6 331.5 240.6 331.5L239.6 322.5L248.4 311.6ZM236.6 317.7L232.8 314.4L242.3 291L246.4 309C246.4 309 239.9 308.5 237.7 310.1C235.4 311.6 236.6 317.7 236.6 317.7Z" fill="black"/>
<path id="Vector_57" d="M259 231.8C259 231.8 256.3 232.4 254.7 235.2C253.1 238 254.1 246.8 254.1 246.8C254.1 246.8 262.3 254.9 269.3 258.3L271.4 246.7L274.6 258.3C274.6 258.3 285.4 250.6 288.4 244.2C288.4 244.2 289.4 236.7 288.4 234.2C287.4 231.7 285.2 231.8 285.2 231.8" stroke="#263238" stroke-width="1.1031" stroke-miterlimit="10" stroke-linecap="round" stroke-linejoin="round"/>
<path id="Vector_58" d="M246.2 309.3C246.2 309.3 243 287.8 238.7 279" stroke="#263238" stroke-width="1.1031" stroke-miterlimit="10" stroke-linecap="round" stroke-linejoin="round"/>
<path id="Vector_59" d="M229.5 260C229.5 260 233.6 265.7 236.1 271.1" stroke="#263238" stroke-width="1.1031" stroke-miterlimit="10" stroke-linecap="round" stroke-linejoin="round"/>
<path id="Vector_60" d="M313.8 276C314.9 271.7 316.1 268 317.3 265.5" stroke="#263238" stroke-width="1.1031" stroke-miterlimit="10" stroke-linecap="round" stroke-linejoin="round"/>
<path id="Vector_61" d="M307.1 309.3C307.1 309.3 309.4 294.6 312.2 282.4" stroke="#263238" stroke-width="1.1031" stroke-miterlimit="10" stroke-linecap="round" stroke-linejoin="round"/>
<path id="Vector_62" d="M311.1 288.6C313.3 285.7 316.5 283.5 320 282.5" stroke="#263238" stroke-width="1.1031" stroke-miterlimit="10" stroke-linecap="round" stroke-linejoin="round"/>
<path id="Vector_63" d="M288.8 242.2C288.8 242.2 307.4 249.6 319.5 253.9C319.5 253.9 334.3 267.8 350.2 316C350.2 316 335.7 340.5 308 348.3" stroke="#263238" stroke-width="1.1031" stroke-miterlimit="10" stroke-linecap="round" stroke-linejoin="round"/>
<path id="Vector_64" d="M312.7 325.7L326.1 314.5C326.1 314.5 333.2 309.1 340.5 312.8" stroke="#263238" stroke-width="1.1031" stroke-miterlimit="10" stroke-linecap="round" stroke-linejoin="round"/>
<path id="Vector_65" d="M312.2 287.3C312.2 287.3 323.3 303.6 326.1 314.6" stroke="#263238" stroke-width="1.1031" stroke-miterlimit="10" stroke-linecap="round" stroke-linejoin="round"/>
<path id="Vector_66" d="M236.7 318.3L232.8 314.6C232.8 314.6 227 313.6 220.4 318" stroke="#263238" stroke-width="1.1031" stroke-miterlimit="10" stroke-linecap="round" stroke-linejoin="round"/>
<path id="Vector_67" d="M232.8 314.6C232.8 314.6 237.7 298.6 242.4 290.4" stroke="#263238" stroke-width="1.1031" stroke-miterlimit="10" stroke-linecap="round" stroke-linejoin="round"/>
<path id="Vector_68" d="M253.8 244.2C253.8 244.2 227 254.3 224.4 257.2C221.8 260.1 211.8 316.4 211.5 322.8C211.3 328.6 232.1 341.5 242.5 346.9" stroke="#263238" stroke-width="1.1031" stroke-miterlimit="10" stroke-linecap="round" stroke-linejoin="round"/>
<path id="Vector_69" d="M350.8 235.1H320.2C316.6 235.1 313.7 232.2 313.7 228.6V210.7C313.7 207.1 316.6 204.2 320.2 204.2H350.8C354.4 204.2 357.3 207.1 357.3 210.7V228.6C357.4 232.2 354.5 235.1 350.8 235.1Z" fill="white" stroke="#263238" stroke-width="1.1031" stroke-miterlimit="10" stroke-linecap="round" stroke-linejoin="round"/>
<path id="Vector_70" d="M327.8 213.5L319.5 218.7L327.2 225.6" stroke="#263238" stroke-width="1.1031" stroke-miterlimit="10" stroke-linecap="round" stroke-linejoin="round"/>
<path id="Vector_71" d="M343.1 226.1L350.7 219.7L342 214" stroke="#263238" stroke-width="1.1031" stroke-miterlimit="10" stroke-linecap="round" stroke-linejoin="round"/>
<path id="Vector_72" d="M331.9 230.1L338.1 210.7" stroke="#263238" stroke-width="1.1031" stroke-miterlimit="10" stroke-linecap="round" stroke-linejoin="round"/>
<path id="Vector_73" d="M273.8 263.2C273.8 264.2 273 265 272 265C271 265 270.2 264.2 270.2 263.2C270.2 262.2 271 261.4 272 261.4C273 261.4 273.8 262.2 273.8 263.2Z" fill="#263238"/>
<g id="Group_12">
<path id="Vector_74" d="M304.9 357.4H243.9C243.1 357.4 242.5 356.8 242.5 356C242.5 355.2 243.1 354.6 243.9 354.6H304.9C305.7 354.6 306.3 355.2 306.3 356C306.3 356.7 305.6 357.4 304.9 357.4Z" fill="#263238"/>
<path id="Vector_75" d="M307 352.6L315.2 314.2C315.7 311.7 313.8 309.3 311.2 309.3H239.9C237.3 309.3 235.4 311.7 235.9 314.2L243.2 351.3C243.6 353.2 245.2 354.5 247.1 354.6L302.9 355.9C304.9 355.9 306.6 354.6 307 352.6Z" fill="white" stroke="#263238" stroke-width="1.1031" stroke-miterlimit="10" stroke-linecap="round" stroke-linejoin="round"/>
<path id="Vector_76" d="M281 331.4C281 334.5 278.5 337.1 275.3 337.1C272.1 337.1 269.6 334.6 269.6 331.4C269.6 328.2 272.1 325.7 275.3 325.7C278.5 325.7 281 328.3 281 331.4Z" fill="#263238"/>
<path id="Vector_77" d="M292.2 312.9H300.6" stroke="#263238" stroke-width="1.1031" stroke-miterlimit="10" stroke-linecap="round" stroke-linejoin="round"/>
<path id="Vector_78" d="M251.7 312.9H283.9" stroke="#263238" stroke-width="1.1031" stroke-miterlimit="10" stroke-linecap="round" stroke-linejoin="round"/>
</g>
<path id="Vector_79" d="M307.1 393.4L300.6 410.5C300.6 410.5 284 406.3 262.8 402C240.6 397.4 217.4 391.6 205.4 370.5C203.9 367.9 203 364.9 203.6 362C205.3 354.7 214.8 352.7 221.1 352C225 351.5 229 351.4 232.9 351.3C234.9 351.3 241.6 350.2 243.2 351.4C243.2 351.4 247.4 354.5 250.9 356C254.4 357.5 306.3 354.6 306.3 354.6C306.3 354.6 307.8 351.3 307.9 348.4C316 344.3 334.9 340.8 342.9 342.3C355.4 344.7 362.7 352 361.4 359.7C360 367.3 332.3 387.8 307.1 393.4Z" fill="#263238"/>
<path id="Vector_80" d="M307.1 393.4C307.1 393.4 291.3 389.2 278.5 380.5C265.6 371.8 255.6 361.7 237.6 363.8" stroke="white" stroke-width="1.1031" stroke-miterlimit="10" stroke-linecap="round" stroke-linejoin="round"/>
<path id="Vector_81" d="M275.5 378.4C283.6 376.1 289.6 370.8 296.1 365.7C303 360.3 310.3 355.2 318.2 351.2" stroke="white" stroke-width="1.1031" stroke-miterlimit="10" stroke-linecap="round" stroke-linejoin="round"/>
</g>
<g id="face">
<path id="Vector_82" d="M262.3 180.9L246.7 197.5C246.7 197.5 244.5 199.4 245.4 204.2C246.3 209 248.3 213.2 249.8 213.5C251.3 213.8 253.4 213.8 253.4 213.8C253.4 213.8 256.8 221.1 259.1 223.9C259.1 223.9 259.9 235.1 259.5 238.2C259.5 238.2 265.1 243.1 270.4 243.7C275.7 244.3 283.9 236.2 283.9 236.2L285.9 226.3C285.9 226.3 290.7 219 291 217.1C291.3 215.2 293.5 215.7 294.6 214.7C295.7 213.7 298.2 209.5 298.6 205.4C299 201.4 299 196.7 294.3 198.1C290.2 197 292.8 188.4 292.8 188.4L285.7 182.1L262.3 180.9Z" fill="white"/>
<path id="Vector_83" d="M259 223.9C259 223.9 259.9 232.4 259 236.3" stroke="#263238" stroke-width="1.1031" stroke-miterlimit="10" stroke-linecap="round" stroke-linejoin="round"/>
<path id="Vector_84" d="M284.6 235.1C284.6 235.1 284.6 231 285.5 227" stroke="#263238" stroke-width="1.1031" stroke-miterlimit="10" stroke-linecap="round" stroke-linejoin="round"/>
<path id="Vector_85" d="M286.9 187.2C286.9 187.2 292 193.7 291.8 198.5C291.5 203.4 291.1 209.2 291.3 214.8C291.4 220.5 282.2 232.3 277.5 233.4C272.8 234.5 268.7 234.7 265.6 231.7C262.6 228.7 259.5 224.5 255.6 219.1C251.6 213.7 252.6 201.9 252.6 201.9" stroke="#263238" stroke-width="1.1031" stroke-miterlimit="10" stroke-linecap="round" stroke-linejoin="round"/>
<path id="Vector_86" d="M274.6 206.3C274.3 208.1 274.2 209.9 274.2 211.7C274.2 213.2 274.5 214.8 275.5 215.9C276.1 216.5 276.9 216.9 277 217.7C277.1 218.4 276.6 219.1 275.9 219.4C275.3 219.8 274.6 220 274 220.5" stroke="#263238" stroke-width="1.1031" stroke-miterlimit="10" stroke-linecap="round" stroke-linejoin="round"/>
<path id="Vector_87" d="M266.4 221.2C266.4 221.2 267 225 272.1 225.8" stroke="#263238" stroke-width="1.1031" stroke-miterlimit="10" stroke-linecap="round" stroke-linejoin="round"/>
<path id="Vector_88" d="M266.9 209.2C266.9 210.3 266.4 211.2 265.8 211.2C265.2 211.2 264.7 210.3 264.7 209.2C264.7 208.1 265.2 207.2 265.8 207.2C266.5 207.2 266.9 208.1 266.9 209.2Z" fill="#263238"/>
<path id="Vector_89" d="M282.2 209.7C282.2 210.8 281.7 211.7 281.1 211.7C280.5 211.7 280 210.8 280 209.7C280 208.6 280.5 207.7 281.1 207.7C281.8 207.7 282.2 208.6 282.2 209.7Z" fill="#263238"/>
<path id="Vector_90" d="M279.2 204.9C279.2 204.9 284.2 199.9 288.4 205.5" stroke="#263238" stroke-width="2.2062" stroke-miterlimit="10" stroke-linecap="round" stroke-linejoin="round"/>
<path id="Vector_91" d="M268.6 205C268.6 205 265.4 201.5 260.5 205" stroke="#263238" stroke-width="2.2062" stroke-miterlimit="10" stroke-linecap="round" stroke-linejoin="round"/>
<path id="Vector_92" d="M259.4 228.6C259.4 228.6 262.4 237 269.3 239.4C276.1 241.8 285.2 229.4 285.2 229.4L284.7 227.8C284.7 227.8 278.8 235.5 272.2 234.2C265.6 232.9 259.1 224 259.1 224L259.4 228.6Z" fill="#263238"/>
<path id="Vector_93" d="M253.3 213.5C253.3 213.5 249.2 214.9 248.2 211.8C247.1 208.6 243.4 200.3 246.7 197.5C249.9 194.7 252.5 201.2 252.5 201.2" stroke="#263238" stroke-width="1.1031" stroke-miterlimit="10" stroke-linecap="round" stroke-linejoin="round"/>
<path id="Vector_94" d="M291.3 215.2C291.3 215.2 295.1 216 296.2 212.8C297.3 209.6 301 201.3 297.7 198.5C294.5 195.7 291.9 202.2 291.9 202.2" stroke="#263238" stroke-width="1.1031" stroke-miterlimit="10" stroke-linecap="round" stroke-linejoin="round"/>
<path id="Vector_95" d="M252.5 209.2C253.6 209.1 255.5 208.1 256.1 207.1C256.7 206.1 256.9 205 257.1 203.9C257.5 201.8 257.7 199.6 257.7 197.5C257.7 196.7 257.7 195.8 257.9 195C258.2 194.2 258.7 193.4 259.3 192.8C260.7 191.1 262.4 189.7 263.8 188C265.1 186.3 266.1 184.1 265.8 182C265.8 182 275 190.4 288.3 187.8C295.4 186.4 302.3 180.1 301.5 172.3C301.2 169.5 299.1 167.5 296.5 166.8C293 165.9 289.8 167.8 286.6 169C280.8 171.2 275.1 167.4 269.2 166.8C264.2 166.3 258 166.9 255.4 171.9C255.4 171.9 246.3 173 242.4 180.4C238.4 187.8 246 198.1 246 198.1C246 198.1 249 194.4 252.9 201.9L252.5 209.2Z" fill="#263238"/>
<path id="Vector_96" d="M287.5 185.3C287.5 185.3 285.2 197.5 291.3 203.4C291.3 203.4 292.6 199.7 294 198.8C294 198.8 297.4 192.4 292.9 185.3C288.4 178.2 287.5 185.3 287.5 185.3Z" fill="#263238"/>
<path id="Vector_97" opacity="0.2" d="M298.7 171.4C297.8 174.8 295 177.4 291.7 178.7C283.2 182.2 275 178.3 266.5 177.6C259.6 177 251.9 183.2 251.4 190.4" stroke="white" stroke-width="1.1031" stroke-miterlimit="10" stroke-linecap="round" stroke-linejoin="round"/>
<path id="Vector_98" opacity="0.2" d="M246.2 188.4C246.3 182.8 250 177.4 255.2 175.3" stroke="white" stroke-width="1.1031" stroke-miterlimit="10" stroke-linecap="round" stroke-linejoin="round"/>
<path id="Vector_99" d="M257.1 235.1C257.1 235.1 262.7 241.3 270.3 244.1C270.3 244.1 280.5 241.2 285.6 234.1" stroke="#263238" stroke-width="1.1031" stroke-miterlimit="10" stroke-linecap="round" stroke-linejoin="round"/>
<path id="Vector_100" d="M267.45 217.373C271.968 215.301 273.951 209.959 271.879 205.44C269.807 200.922 264.464 198.939 259.946 201.011C255.427 203.084 253.445 208.426 255.517 212.944C257.589 217.463 262.932 219.446 267.45 217.373Z" stroke="#263238" stroke-width="1.1031" stroke-miterlimit="10" stroke-linecap="round" stroke-linejoin="round"/>
<path id="Vector_101" d="M284.877 218.124C289.81 217.518 293.318 213.027 292.712 208.094C292.106 203.161 287.616 199.653 282.683 200.259C277.749 200.865 274.241 205.355 274.847 210.288C275.453 215.222 279.944 218.73 284.877 218.124Z" stroke="#263238" stroke-width="1.1031" stroke-miterlimit="10" stroke-linecap="round" stroke-linejoin="round"/>
<path id="Vector_102" d="M272.7 210.7H275.1" stroke="#263238" stroke-width="1.1031" stroke-miterlimit="10" stroke-linecap="round" stroke-linejoin="round"/>
</g>
</g>
</svg>
