<svg width="28" height="28" viewBox="0 0 28 28" fill="none" xmlns="http://www.w3.org/2000/svg">
<path d="M15.4 8.39998C16.5139 8.39998 17.5822 8.84247 18.3698 9.63013C19.1575 10.4178 19.6 11.4861 19.6 12.6C19.6 12.9713 19.7475 13.3274 20.01 13.5899C20.2726 13.8525 20.6287 14 21 14C21.3713 14 21.7274 13.8525 21.9899 13.5899C22.2525 13.3274 22.4 12.9713 22.4 12.6C22.4 10.7435 21.6625 8.96298 20.3497 7.65023C19.037 6.33747 17.2565 5.59998 15.4 5.59998C15.0287 5.59998 14.6726 5.74748 14.4101 6.01003C14.1475 6.27258 14 6.62867 14 6.99998C14 7.37128 14.1475 7.72737 14.4101 7.98992C14.6726 8.25248 15.0287 8.39998 15.4 8.39998Z" fill="white"/>
<path d="M15.4 2.8C17.9991 2.8 20.4918 3.8325 22.3296 5.67035C24.1675 7.50821 25.2 10.0009 25.2 12.6C25.2 12.9713 25.3475 13.3274 25.61 13.5899C25.8726 13.8525 26.2287 14 26.6 14C26.9713 14 27.3274 13.8525 27.5899 13.5899C27.8525 13.3274 28 12.9713 28 12.6C28 9.25827 26.6725 6.05341 24.3095 3.69045C21.9466 1.3275 18.7417 0 15.4 0C15.0287 0 14.6726 0.147499 14.41 0.41005C14.1475 0.672601 14 1.0287 14 1.4C14 1.7713 14.1475 2.1274 14.41 2.38995C14.6726 2.6525 15.0287 2.8 15.4 2.8ZM27.65 19.474C27.573 19.2492 27.4401 19.0478 27.2637 18.8886C27.0874 18.7294 26.8734 18.6177 26.642 18.564L18.242 16.646C18.014 16.5943 17.7767 16.6005 17.5517 16.6641C17.3267 16.7277 17.1212 16.8466 16.954 17.01C16.758 17.192 16.744 17.206 15.834 18.942C12.8145 17.5506 10.395 15.1212 9.016 12.096C10.794 11.2 10.808 11.2 10.99 10.99C11.1534 10.8228 11.2723 10.6173 11.3359 10.3923C11.3995 10.1673 11.4057 9.93001 11.354 9.702L9.436 1.4C9.3823 1.16857 9.2706 0.954619 9.1114 0.778276C8.9522 0.601933 8.75075 0.469003 8.526 0.392C8.19905 0.275225 7.86143 0.190821 7.518 0.14C7.16415 0.0579533 6.80306 0.0110591 6.44 0C4.732 0 3.09397 0.678498 1.88623 1.88623C0.678498 3.09397 0 4.732 0 6.44C0.00740868 12.1558 2.28128 17.6354 6.32296 21.677C10.3646 25.7187 15.8442 27.9926 21.56 28C22.4057 28 23.2431 27.8334 24.0245 27.5098C24.8058 27.1861 25.5158 26.7118 26.1138 26.1138C26.7118 25.5158 27.1861 24.8058 27.5098 24.0245C27.8334 23.2431 28 22.4057 28 21.56C28.0004 21.2037 27.9723 20.8479 27.916 20.496C27.8572 20.1483 27.7682 19.8063 27.65 19.474ZM21.56 25.2C16.5857 25.1963 11.8161 23.2186 8.29877 19.7012C4.78139 16.1838 2.80371 11.4143 2.8 6.44C2.80369 5.47575 3.18837 4.55204 3.8702 3.8702C4.55204 3.18837 5.47575 2.80369 6.44 2.8H6.902L8.4 9.296L7.644 9.688C6.44 10.318 5.488 10.822 5.992 11.914C6.81271 14.2374 8.14068 16.3488 9.87943 18.0948C11.6182 19.8408 13.724 21.1776 16.044 22.008C17.22 22.484 17.682 21.602 18.312 20.384L18.718 19.614L25.2 21.098V21.56C25.1963 22.5242 24.8116 23.448 24.1298 24.1298C23.448 24.8116 22.5242 25.1963 21.56 25.2Z" fill="white"/>
</svg>
