<svg width="28" height="27" viewBox="0 0 28 27" fill="none" xmlns="http://www.w3.org/2000/svg">
<path d="M6.35622 26.7645V8.70654H0.354121V26.7645H6.35622ZM3.35595 6.23955C5.44898 6.23955 6.7518 4.85291 6.7518 3.12007C6.7128 1.34815 5.44906 0 3.39567 0C1.34259 0 0 1.34818 0 3.12007C0 4.85299 1.30249 6.23955 3.31676 6.23955H3.35576H3.35595ZM9.67836 26.7645H15.6805V16.6801C15.6805 16.1404 15.7195 15.6012 15.878 15.2154C16.3119 14.1371 17.2994 13.0203 18.9575 13.0203C21.1294 13.0203 21.9983 14.6762 21.9983 17.1038V26.7644H28V16.4101C28 10.8634 25.0389 8.2826 21.0899 8.2826C17.852 8.2826 16.4303 10.0925 15.6405 11.3252H15.6806V8.70617H9.6785C9.75727 10.4006 9.6785 26.7642 9.6785 26.7642L9.67836 26.7645Z" fill="white"/>
</svg>
